<svg width="16" height="24" viewBox="0 0 16 24" fill="none" xmlns="http://www.w3.org/2000/svg">
<path d="M13.8182 0H2.18182C0.977273 0 0 1.00781 0 2.25V21.75C0 22.9922 0.977273 24 2.18182 24H13.8182C15.0227 24 16 22.9922 16 21.75V2.25C16 1.00781 15.0227 0 13.8182 0ZM10.1818 20.9578C10.1818 21.4125 9.85455 21.75 9.45455 21.75H6.50455C6.14545 21.75 5.81818 21.4125 5.81818 21C5.81818 20.5875 6.14545 20.25 6.54545 20.25H9.45455C9.85455 20.25 10.1818 20.5875 10.1818 20.9578ZM13.0909 18H2.90909V3H13.0909V18Z" fill="#02897A"/>
</svg>
